Coordinates
version=1
nRows=80
nColumns=19
inDegrees=yes

Units are S.I. units (second, meters, Newtons, ...)
Angles are in degrees.

endheader
time	1_Force_X	1_Force_Y	1_Force_Z	1_Moment_X	1_Moment_Y	1_Moment_Z	1_COP_X	1_COP_Y	1_COP_Z	2_Force_X	2_Force_Y	2_Force_Z	2_Moment_X	2_Moment_Y	2_Moment_Z	2_COP_X	2_COP_Y	2_COP_Z
1.0950	29.085	-2.967	5.697	-0.279	0.000	0.459	-13.380	-1.145	-4.153	-0.217	0.000	0.275	0.00000	7.82903	0.00000	0.00000	-81.80252	0.00000
1.0975	29.443	-3.325	6.400	-0.263	0.000	0.457	-13.164	0.057	-3.843	-0.219	0.000	0.273	0.00000	7.75264	0.00000	0.00000	1752.65760	0.00000
1.1000	28.868	-3.328	5.207	-0.282	0.000	0.454	-13.206	-0.970	-3.977	-0.217	0.000	0.274	0.00000	7.27008	0.00000	0.00000	-96.01537	0.00000
1.1025	28.951	-3.331	4.986	-0.273	0.000	0.446	-12.982	-0.798	-4.453	-0.219	0.000	0.276	0.00000	8.09774	0.00000	0.00000	-114.43107	0.00000
1.1050	28.518	-5.076	5.074	-0.280	0.000	0.442	-14.170	-2.335	-3.064	-0.219	0.000	0.279	0.00000	6.33297	0.00000	0.00000	-43.44091	0.00000
1.1075	27.851	-4.545	4.814	-0.273	0.000	0.439	-14.515	-2.675	-3.415	-0.217	0.000	0.282	0.00000	6.96023	0.00000	0.00000	-37.79436	0.00000
1.1100	27.189	-4.023	4.594	-0.275	0.000	0.429	-14.128	-3.024	-3.022	-0.218	0.000	0.282	0.00000	7.89306	0.00000	0.00000	-32.37829	0.00000
1.1125	27.634	-4.021	4.814	-0.284	0.000	0.445	-13.519	-2.000	-3.104	-0.217	0.000	0.281	0.00000	6.77232	0.00000	0.00000	-49.39986	0.00000
1.1150	26.578	-3.657	5.087	-0.285	0.000	0.452	-13.608	-1.999	-2.887	-0.217	0.000	0.279	0.00000	6.49142	0.00000	0.00000	-49.77199	0.00000
1.1175	25.564	-3.646	4.960	-0.293	0.000	0.453	-13.692	-1.489	-3.322	-0.220	0.000	0.279	0.00000	6.08164	0.00000	0.00000	-68.77787	0.00000
1.1200	25.256	-3.995	4.696	-0.293	0.000	0.452	-13.739	-0.452	-2.709	-0.220	0.000	0.276	0.00000	5.68038	0.00000	0.00000	-246.22712	0.00000
1.1225	24.643	-3.299	5.137	-0.291	0.000	0.444	-14.046	-2.343	-2.670	-0.219	0.000	0.281	0.00000	6.78989	0.00000	0.00000	-44.61169	0.00000
1.1250	24.764	-4.173	4.431	-0.278	0.000	0.428	-13.651	-2.682	-2.625	-0.218	0.000	0.282	0.00000	7.17883	0.00000	0.00000	-36.74907	0.00000
1.1275	23.895	-3.806	5.542	-0.288	0.000	0.457	-13.913	-2.349	-3.151	-0.218	0.000	0.281	0.00000	5.41724	0.00000	0.00000	-42.80202	0.00000
1.1300	23.668	-3.975	4.751	-0.294	0.000	0.455	-13.614	-2.690	-2.451	-0.215	0.000	0.282	0.00000	5.32202	0.00000	0.00000	-37.09945	0.00000
1.1325	24.643	-5.019	5.986	-0.285	0.000	0.453	-13.007	-2.868	-2.277	-0.216	0.000	0.279	0.00000	5.28299	0.00000	0.00000	-32.05793	0.00000
1.1350	25.520	-6.408	5.766	-0.289	0.000	0.459	-12.010	-2.181	-1.572	-0.216	0.000	0.277	0.00000	4.65493	0.00000	0.00000	-41.34341	0.00000
1.1375	24.909	-4.842	6.470	-0.293	0.000	0.440	-11.657	-0.972	-1.565	-0.219	0.000	0.275	0.00000	6.20444	0.00000	0.00000	-96.56451	0.00000
1.1400	22.924	-4.646	6.659	-0.290	0.000	0.435	-12.712	-1.144	-0.828	-0.219	0.000	0.276	0.00000	6.33142	0.00000	0.00000	-94.55705	0.00000
1.1425	22.532	-4.642	7.544	-0.280	0.000	0.433	-13.359	-1.831	-1.662	-0.218	0.000	0.279	0.00000	6.63769	0.00000	0.00000	-58.09723	0.00000
1.1450	22.706	-3.419	7.323	-0.291	0.000	0.441	-12.838	-1.496	-1.792	-0.218	0.000	0.277	0.00000	7.24311	0.00000	0.00000	-68.23405	0.00000
1.1475	23.676	-3.237	8.163	-0.286	0.000	0.452	-11.960	-2.360	-2.622	-0.215	0.000	0.276	0.00000	7.36913	0.00000	0.00000	-34.88325	0.00000
1.1500	23.766	-3.926	8.386	-0.294	0.000	0.458	-11.745	-0.129	-2.312	-0.218	0.000	0.269	0.00000	6.17373	0.00000	0.00000	-715.84569	0.00000
1.1525	23.640	-3.926	8.430	-0.304	0.000	0.469	-12.586	0.916	-0.700	-0.216	0.000	0.263	0.00000	5.13918	0.00000	0.00000	122.27527	0.00000
1.1550	26.007	-4.094	9.664	-0.286	0.000	0.436	-11.460	-0.828	-0.876	-0.215	0.000	0.267	0.00000	8.78146	0.00000	0.00000	-111.77254	0.00000
1.1575	31.001	-4.799	13.006	-0.274	0.000	0.463	-10.549	-0.820	0.313	-0.218	0.000	0.269	0.00000	8.28873	0.00000	0.00000	-113.42002	0.00000
1.1600	28.846	-3.780	11.275	-0.296	0.000	0.417	-8.624	-0.476	-0.154	-0.217	0.000	0.271	0.00000	10.98738	0.00000	0.00000	-159.42904	0.00000
1.1625	25.001	-5.563	5.842	-0.296	0.000	0.421	-12.425	0.564	0.439	-0.216	0.000	0.269	0.00000	6.40257	0.00000	0.00000	211.12272	0.00000
1.1650	26.932	-5.720	7.305	-0.267	0.000	0.450	-11.277	0.563	-0.645	-0.223	0.000	0.268	0.00000	6.21492	0.00000	0.00000	181.03181	0.00000
1.1675	26.083	-1.714	5.626	-0.289	0.000	0.440	-12.959	-0.115	-2.933	-0.213	0.000	0.265	0.00000	12.67311	0.00000	0.00000	-826.30813	0.00000
1.1700	24.165	-3.463	6.157	-0.281	0.000	0.459	-12.650	-3.578	-4.335	-0.211	0.000	0.280	0.00000	5.70796	0.00000	0.00000	-20.42456	0.00000
1.1725	24.108	-4.302	6.041	-0.273	0.000	0.487	-10.437	-0.802	-1.254	-0.223	0.000	0.270	0.00000	3.97377	0.00000	0.00000	-104.08530	0.00000
1.1750	22.515	-2.753	3.871	-0.298	0.000	0.443	-12.099	1.048	-3.104	-0.216	0.000	0.264	0.00000	7.09799	0.00000	0.00000	89.26621	0.00000
1.1775	24.725	-2.820	3.224	-0.270	0.000	0.428	-8.671	0.056	-3.915	-0.210	0.000	0.263	0.00000	8.36838	0.00000	0.00000	914.95423	0.00000
1.1800	21.906	-4.165	4.218	-0.285	0.000	0.412	-10.466	1.068	-4.231	-0.211	0.000	0.261	0.00000	6.94035	0.00000	0.00000	65.78172	0.00000
1.1825	23.744	-5.404	2.092	-0.285	0.000	0.436	-11.510	2.466	-3.399	-0.217	0.000	0.258	0.00000	4.96975	0.00000	0.00000	37.97115	0.00000
1.1850	24.377	-2.836	2.467	-0.287	0.000	0.414	-11.603	1.410	-3.932	-0.218	0.000	0.257	0.00000	8.66960	0.00000	0.00000	58.66483	0.00000
1.1875	24.216	-2.976	0.719	-0.286	0.000	0.441	-11.283	0.559	-5.419	-0.210	0.000	0.258	0.00000	6.73129	0.00000	0.00000	115.10081	0.00000
1.1900	24.728	-3.993	4.655	-0.278	0.000	0.479	-10.424	1.070	-4.060	-0.211	0.000	0.257	0.00000	3.88589	0.00000	0.00000	63.35039	0.00000
1.1925	24.939	-3.667	2.748	-0.291	0.000	0.452	-12.401	2.981	-2.146	-0.209	0.000	0.249	0.00000	5.48889	0.00000	0.00000	34.83868	0.00000
1.1950	25.122	-3.162	3.004	-0.290	0.000	0.440	-10.887	4.683	-5.628	-0.214	0.000	0.248	0.00000	6.78440	0.00000	0.00000	16.90650	0.00000
1.1975	24.103	-4.201	2.481	-0.279	0.000	0.438	-11.916	4.184	-2.534	-0.211	0.000	0.246	0.00000	5.55634	0.00000	0.00000	24.63712	0.00000
1.2000	21.726	-4.196	1.912	-0.289	0.000	0.416	-13.056	2.311	-5.638	-0.212	0.000	0.254	0.00000	5.83527	0.00000	0.00000	38.65645	0.00000
1.2025	22.373	-2.823	0.935	-0.257	0.000	0.402	-13.476	1.774	-3.902	-0.211	0.000	0.251	0.00000	8.92642	0.00000	0.00000	53.43664	0.00000
1.2050	23.706	-3.523	1.813	-0.267	0.000	0.432	-12.235	-0.102	-5.118	-0.210	0.000	0.258	0.00000	6.12357	0.00000	0.00000	-678.79085	0.00000
1.2075	22.674	-3.132	1.082	-0.279	0.000	0.440	-13.334	0.915	-5.127	-0.208	0.000	0.252	0.00000	6.35000	0.00000	0.00000	88.49076	0.00000
1.2100	22.696	-6.089	2.364	-0.287	0.000	0.468	-14.209	2.320	-3.597	-0.210	0.000	0.248	0.00000	2.77890	0.00000	0.00000	45.75442	0.00000
1.2125	24.543	-4.203	1.773	-0.294	0.000	0.451	-15.114	5.408	-4.992	-0.211	0.000	0.244	0.00000	4.63506	0.00000	0.00000	22.92916	0.00000
1.2150	23.313	-1.943	2.168	-0.299	0.000	0.417	-15.997	4.733	-3.645	-0.209	0.000	0.244	0.00000	10.92793	0.00000	0.00000	28.56246	0.00000
1.2175	25.342	-3.353	2.778	-0.272	0.000	0.431	-16.385	5.756	-4.479	-0.210	0.000	0.238	0.00000	7.14504	0.00000	0.00000	23.25353	0.00000
1.2200	25.686	-4.220	2.251	-0.271	0.000	0.427	-15.873	3.701	-3.085	-0.206	0.000	0.240	0.00000	6.64083	0.00000	0.00000	33.64172	0.00000
1.2225	26.089	-4.726	3.095	-0.281	0.000	0.458	-14.512	3.687	-4.388	-0.207	0.000	0.241	0.00000	4.50067	0.00000	0.00000	28.56768	0.00000
1.2250	25.242	-3.515	1.195	-0.289	0.000	0.457	-13.509	5.746	-4.334	-0.210	0.000	0.237	0.00000	4.93677	0.00000	0.00000	19.07021	0.00000
1.2275	23.441	-4.549	1.866	-0.277	0.000	0.450	-13.283	3.336	-5.297	-0.209	0.000	0.245	0.00000	4.26246	0.00000	0.00000	27.22307	0.00000
1.2300	23.257	-4.553	0.894	-0.281	0.000	0.432	-12.588	4.196	-4.720	-0.211	0.000	0.246	0.00000	5.14231	0.00000	0.00000	22.98901	0.00000
1.2325	22.868	-2.666	1.234	-0.265	0.000	0.401	-12.589	2.644	-4.898	-0.210	0.000	0.250	0.00000	9.33913	0.00000	0.00000	33.04758	0.00000
1.2350	21.799	-1.595	0.497	-0.274	0.000	0.414	-12.512	2.455	-4.461	-0.212	0.000	0.254	0.00000	12.12404	0.00000	0.00000	36.67617	0.00000
1.2375	21.722	-4.012	2.006	-0.278	0.000	0.434	-11.253	1.427	-3.450	-0.215	0.000	0.255	0.00000	5.24445	0.00000	0.00000	56.96520	0.00000
1.2400	21.940	-4.531	1.743	-0.282	0.000	0.445	-11.344	0.565	-3.145	-0.213	0.000	0.259	0.00000	4.31099	0.00000	0.00000	142.65843	0.00000
1.2425	21.413	-3.818	2.102	-0.295	0.000	0.452	-10.863	0.387	-3.402	-0.214	0.000	0.264	0.00000	4.39814	0.00000	0.00000	198.82103	0.00000
1.2450	22.081	-3.992	3.513	-0.280	0.000	0.453	-12.005	0.219	-2.622	-0.214	0.000	0.265	0.00000	4.66362	0.00000	0.00000	417.38150	0.00000
1.2475	22.206	-2.606	3.156	-0.277	0.000	0.428	-11.919	1.593	-2.399	-0.216	0.000	0.262	0.00000	8.21204	0.00000	0.00000	62.34864	0.00000
1.2500	23.057	-3.484	3.813	-0.287	0.000	0.455	-12.969	0.910	-2.146	-0.213	0.000	0.262	0.00000	4.97477	0.00000	0.00000	115.46086	0.00000
1.2525	23.128	-2.962	2.623	-0.278	0.000	0.439	-11.398	0.907	-2.136	-0.214	0.000	0.263	0.00000	6.93122	0.00000	0.00000	101.81580	0.00000
1.2550	23.316	-5.032	4.263	-0.285	0.000	0.452	-11.879	-0.982	-2.012	-0.211	0.000	0.268	0.00000	4.61375	0.00000	0.00000	-89.93725	0.00000
1.2575	22.908	-3.294	3.070	-0.288	0.000	0.437	-11.442	0.565	-1.918	-0.215	0.000	0.264	0.00000	6.68971	0.00000	0.00000	163.97969	0.00000
1.2600	23.093	-4.186	3.194	-0.278	0.000	0.434	-10.995	0.386	-3.314	-0.216	0.000	0.265	0.00000	5.69347	0.00000	0.00000	206.75418	0.00000
1.2625	22.078	-3.131	3.023	-0.282	0.000	0.442	-11.177	0.906	-2.310	-0.216	0.000	0.263	0.00000	6.04680	0.00000	0.00000	98.34744	0.00000
1.2650	22.913	-3.284	4.044	-0.284	0.000	0.444	-11.582	0.199	-2.098	-0.214	0.000	0.264	0.00000	6.49964	0.00000	0.00000	454.53745	0.00000
1.2675	24.994	-3.272	6.472	-0.280	0.000	0.469	-11.294	0.215	0.569	-0.216	0.000	0.263	0.00000	5.88354	0.00000	0.00000	480.44311	0.00000
1.2700	24.112	-2.206	7.008	-0.302	0.000	0.447	-11.023	-0.304	-0.388	-0.217	0.000	0.268	0.00000	9.16651	0.00000	0.00000	-314.34810	0.00000
1.2725	23.010	-3.281	5.147	-0.293	0.000	0.433	-12.589	0.910	-0.655	-0.216	0.000	0.265	0.00000	7.26441	0.00000	0.00000	125.08592	0.00000
1.2750	24.326	-5.042	4.787	-0.269	0.000	0.427	-11.490	-0.119	-1.082	-0.219	0.000	0.273	0.00000	6.49566	0.00000	0.00000	-838.97905	0.00000
1.2775	23.409	-2.924	6.252	-0.291	0.000	0.430	-12.805	-2.178	-0.707	-0.212	0.000	0.271	0.00000	8.50217	0.00000	0.00000	-45.36053	0.00000
1.2800	23.573	-5.028	3.955	-0.283	0.000	0.441	-10.919	-3.745	-2.226	-0.215	0.000	0.281	0.00000	5.42241	0.00000	0.00000	-18.68642	0.00000
1.2825	23.448	-3.302	3.639	-0.291	0.000	0.458	-11.485	-1.510	-2.488	-0.216	0.000	0.275	0.00000	5.20393	0.00000	0.00000	-55.46274	0.00000
1.2850	22.653	-3.791	4.403	-0.298	0.000	0.465	-9.873	0.546	-2.434	-0.217	0.000	0.266	0.00000	4.56028	0.00000	0.00000	140.36228	0.00000
1.2875	23.485	-3.303	3.551	-0.278	0.000	0.442	-10.165	1.931	-3.437	-0.215	0.000	0.262	0.00000	6.58155	0.00000	0.00000	41.03842	0.00000
1.2900	21.730	-2.786	3.109	-0.288	0.000	0.434	-10.295	2.099	-3.614	-0.218	0.000	0.260	0.00000	6.84132	0.00000	0.00000	37.73714	0.00000
1.2925	22.071	-2.437	2.359	-0.286	0.000	0.417	-10.417	0.892	-4.752	-0.216	0.000	0.265	0.00000	9.16102	0.00000	0.00000	77.41844	0.00000
